<?xml version="1.0" encoding="UTF-8" standalone="no"?>
<!-- Created with Inkscape (http://www.inkscape.org/) -->

<svg
   xmlns:dc="http://purl.org/dc/elements/1.1/"
   xmlns:cc="http://creativecommons.org/ns#"
   xmlns:rdf="http://www.w3.org/1999/02/22-rdf-syntax-ns#"
   xmlns:svg="http://www.w3.org/2000/svg"
   xmlns="http://www.w3.org/2000/svg"
   xmlns:sodipodi="http://sodipodi.sourceforge.net/DTD/sodipodi-0.dtd"
   xmlns:inkscape="http://www.inkscape.org/namespaces/inkscape"
   width="20.58952"
   height="68.652397"
   id="svg3041"
   version="1.1"
   inkscape:version="0.48.4 r9939"
   sodipodi:docname="acc_sharp.svg">
  <defs
     id="defs3043" />
  <sodipodi:namedview
     id="base"
     pagecolor="#ffffff"
     bordercolor="#666666"
     borderopacity="1.0"
     inkscape:pageopacity="0.0"
     inkscape:pageshadow="2"
     inkscape:zoom="7.9195959"
     inkscape:cx="18.462732"
     inkscape:cy="37.688715"
     inkscape:document-units="px"
     inkscape:current-layer="layer1"
     showgrid="false"
     fit-margin-top="0"
     fit-margin-left="0"
     fit-margin-right="0"
     fit-margin-bottom="0"
     inkscape:window-width="463"
     inkscape:window-height="453"
     inkscape:window-x="26"
     inkscape:window-y="26"
     inkscape:window-maximized="0" />
  <metadata
     id="metadata3046">
    <rdf:RDF>
      <cc:Work
         rdf:about="">
        <dc:format>image/svg+xml</dc:format>
        <dc:type
           rdf:resource="http://purl.org/dc/dcmitype/StillImage" />
        <dc:title></dc:title>
      </cc:Work>
    </rdf:RDF>
  </metadata>
  <g
     inkscape:label="Layer 1"
     inkscape:groupmode="layer"
     id="layer1"
     transform="translate(-378.27667,-532.3217)">
    <path
       inkscape:connector-curvature="0"
       d="m 384.99187,576.23952 0,-17.00357 7.04638,-1.99531 0,16.91681 -7.04638,2.08207 z m 13.87432,-4.11353 -4.84438,1.42418 0,-16.91681 4.84438,-1.38804 0,-7.02698 -4.84438,1.38804 0,-17.28468 -1.98356,0 0,17.80881 -7.04638,2.07845 0,-16.80753 -1.87081,0 0,17.44734 -4.84439,1.39166 0,7.04144 4.84439,-1.38805 0,16.88428 -4.84439,1.38444 0,7.01252 4.84439,-1.38804 0,17.18708 1.87081,0 0,-17.80159 7.04638,-1.98808 0,16.72079 1.98356,0 0,-17.34975 4.84438,-1.39166 0,-7.03782 z"
       id="path4149"
       style="fill:#000000;fill-opacity:1" />
    <rect
       style="fill:none;stroke:#ff0000;stroke-width:0.2;stroke-miterlimit:4;stroke-opacity:1;stroke-dasharray:none"
       id="bounds"
       width="20.589521"
       height="24.000004"
       x="378.27667"
       y="554.32751"
       inkscape:label="#rect3018" />
  </g>
</svg>
