<?xml version="1.0" encoding="UTF-8" standalone="no"?>
<svg
   xmlns:dc="http://purl.org/dc/elements/1.1/"
   xmlns:cc="http://creativecommons.org/ns#"
   xmlns:rdf="http://www.w3.org/1999/02/22-rdf-syntax-ns#"
   xmlns:svg="http://www.w3.org/2000/svg"
   xmlns="http://www.w3.org/2000/svg"
   xmlns:sodipodi="http://sodipodi.sourceforge.net/DTD/sodipodi-0.dtd"
   xmlns:inkscape="http://www.inkscape.org/namespaces/inkscape"
   width="15.733126"
   version="1.1"
   height="40.7682"
   id="svg2"
   inkscape:version="0.48.4 r9939"
   sodipodi:docname="clef_g.svg">
  <sodipodi:namedview
     pagecolor="#ffffff"
     bordercolor="#666666"
     borderopacity="1"
     objecttolerance="10"
     gridtolerance="10"
     guidetolerance="10"
     inkscape:pageopacity="0"
     inkscape:pageshadow="2"
     inkscape:window-width="1440"
     inkscape:window-height="837"
     id="namedview6"
     showgrid="false"
     showguides="true"
     inkscape:guide-bbox="true"
     inkscape:snap-page="true"
     inkscape:zoom="5.6568543"
     inkscape:cx="0.92975231"
     inkscape:cy="41.584607"
     inkscape:window-x="-8"
     inkscape:window-y="-8"
     inkscape:window-maximized="1"
     inkscape:current-layer="bounds"
     fit-margin-top="0"
     fit-margin-left="0"
     fit-margin-right="0"
     fit-margin-bottom="0" />
  <metadata
     id="metadata10">
    <rdf:RDF>
      <cc:Work
         rdf:about="">
        <dc:format>image/svg+xml</dc:format>
        <dc:type
           rdf:resource="http://purl.org/dc/dcmitype/StillImage" />
        <dc:title />
      </cc:Work>
    </rdf:RDF>
  </metadata>
  <defs
     id="defs8" />
  <path
     id="path4"
     d="m 12.049,3.5278155 c 0.305,3.1263 -2.019,5.6563 -4.0772,7.7014005 -0.9349,0.897 -0.155,0.148 -0.6437,0.594 -0.1022,-0.479 -0.2986,-1.731 -0.2802,-2.1100005 0.1304,-2.6939 2.3198,-6.5875 4.2381,-8.0236 0.309,0.5767 0.563,0.6231 0.763,1.8382 z M 12.7,19.669816 c -1.232,-0.906 -2.85,-1.144 -4.3336,-0.885 -0.1913,-1.255 -0.3827,-2.51 -0.574,-3.764 2.3506,-2.329 4.9066,-5.0322005 5.0406,-8.5394005 0.059,-2.232 -0.276,-4.6714 -1.678,-6.48359992 -1.7004,0.12823 -2.8995,2.15599992 -3.8019,3.41649992 -1.4889,2.6705 -1.1414,5.9169 -0.57,8.7965005 -0.8094,0.952 -1.9296,1.743 -2.7274,2.734 -2.3561,2.308 -4.4085,5.43 -4.0046,8.878 0.18332,3.334 2.5894,6.434 5.8702,7.227 1.2457,0.315 2.5639,0.346 3.8241,0.099 0.2199,2.25 1.0266,4.629 0.0925,6.813 -0.7007,1.598 -2.7875,3.004 -4.3325,2.192 -0.5994,-0.316 -0.1137,-0.051 -0.478,-0.252 1.0698,-0.257 1.9996,-1.036 2.26,-1.565 0.8378,-1.464 -0.3998,-3.639 -2.1554,-3.358 -2.262,0.046 -3.1904,3.14 -1.7356,4.685 1.3468,1.52 3.833,1.312 5.4301,0.318 1.8125,-1.18 2.0395,-3.544 1.8325,-5.562 -0.07,-0.678 -0.403,-2.67 -0.444,-3.387 0.697,-0.249 0.209,-0.059 1.193,-0.449 2.66,-1.053 4.357,-4.259 3.594,-7.122 -0.318,-1.469 -1.044,-2.914 -2.302,-3.792 z m 0.561,5.757 c 0.214,1.991 -1.053,4.321 -3.079,4.96 -0.136,-0.795 -0.172,-1.011 -0.2626,-1.475 -0.4822,-2.46 -0.744,-4.987 -1.116,-7.481 1.6246,-0.168 3.4576,0.543 4.0226,2.184 0.244,0.577 0.343,1.197 0.435,1.812 z m -5.1486,5.196 c -2.5441,0.141 -4.9995,-1.595 -5.6343,-4.081 -0.749,-2.153 -0.5283,-4.63 0.8207,-6.504 1.1151,-1.702 2.6065,-3.105 4.0286,-4.543 0.183,1.127 0.366,2.254 0.549,3.382 -2.9906,0.782 -5.0046,4.725 -3.215,7.451 0.5324,0.764 1.9765,2.223 2.7655,1.634 -1.102,-0.683 -2.0033,-1.859 -1.8095,-3.227 -0.0821,-1.282 1.3699,-2.911 2.6513,-3.198 0.4384,2.869 0.9413,6.073 1.3797,8.943 -0.5054,0.1 -1.0211,0.143 -1.536,0.143 z"
     inkscape:connector-curvature="0" />
  <g
     inkscape:groupmode="layer"
     id="bounds"
     inkscape:label="bounds">
    <rect
       style="fill:none;stroke:none"
       width="15.733126"
       height="12.643962"
       x="0"
       y="18.671316"
       inkscape:label="#rect3011"
       id="rect8" />
  </g>
</svg>
