<?xml version="1.0" encoding="UTF-8" standalone="no"?>
<svg
   xmlns:dc="http://purl.org/dc/elements/1.1/"
   xmlns:cc="http://creativecommons.org/ns#"
   xmlns:rdf="http://www.w3.org/1999/02/22-rdf-syntax-ns#"
   xmlns:svg="http://www.w3.org/2000/svg"
   xmlns="http://www.w3.org/2000/svg"
   xmlns:sodipodi="http://sodipodi.sourceforge.net/DTD/sodipodi-0.dtd"
   xmlns:inkscape="http://www.inkscape.org/namespaces/inkscape"
   width="11"
   height="7.0000019"
   id="svg2"
   version="1.1"
   inkscape:version="0.48.4 r9939"
   sodipodi:docname="note_whole.svg">
  <defs
     id="defs12" />
  <sodipodi:namedview
     pagecolor="#ffffff"
     bordercolor="#666666"
     borderopacity="1"
     objecttolerance="10"
     gridtolerance="10"
     guidetolerance="10"
     inkscape:pageopacity="0"
     inkscape:pageshadow="2"
     inkscape:window-width="1440"
     inkscape:window-height="837"
     id="namedview10"
     showgrid="false"
     showguides="true"
     inkscape:guide-bbox="true"
     inkscape:zoom="28.727273"
     inkscape:cx="0.069620253"
     inkscape:cy="3.500001"
     inkscape:window-x="-8"
     inkscape:window-y="-8"
     inkscape:window-maximized="1"
     inkscape:current-layer="layer1"
     inkscape:snap-page="true"
     showborder="true"
     borderlayer="true"
     inkscape:showpageshadow="false"
     fit-margin-top="0"
     fit-margin-left="0"
     fit-margin-right="0"
     fit-margin-bottom="0">
    <sodipodi:guide
       orientation="1,0"
       position="0,5.7088608"
       id="guide2989" />
  </sodipodi:namedview>
  <metadata
     id="metadata9">image/svg+xml<rdf:RDF>
  <cc:Work
     rdf:about="">
    <dc:format>image/svg+xml</dc:format>
    <dc:type
       rdf:resource="http://purl.org/dc/dcmitype/StillImage" />
  </cc:Work>
</rdf:RDF>
</metadata>
  <g
     id="g5">
    <path
       id="path2918"
       d="M 6.650208,6.420288 C 4.933213,6.329468 3.591462,4.805298 3.053086,3.229248 2.726884,2.304199 2.906052,0.916504 3.992737,0.656677 5.567154,0.389282 6.873596,1.726684 7.605805,3.006531 8.127411,3.955811 8.415772,5.450684 7.43779,6.203125 7.205582,6.358887 6.924866,6.421326 6.650208,6.420288 z M 9.385453,1.016968 C 7.451005,-0.157898 5.007401,-0.24945 2.88913,0.408081 1.547303,0.877258 0.012696,1.875244 0,3.499512 -9.31e-4,5.090943 1.479996,6.083741 2.790482,6.55658 4.865174,7.23523 7.258957,7.175538 9.196015,6.093689 10.292481,5.510315 11.264344,4.302368 10.934785,2.96344 10.753572,2.102478 10.094041,1.458252 9.385453,1.016968 z"
       inkscape:connector-curvature="0"
       style="fill:#000000" />
  </g>
  <g
     inkscape:groupmode="layer"
     id="bounds"
     inkscape:label="Layer">
    <rect
       style="fill:none;stroke:none"
       id="rect2992"
       width="11"
       height="7.0000019"
       x="0"
       y="0" />
  </g>
</svg>
