<?xml version="1.0" encoding="UTF-8" standalone="no"?>
<!-- Created with Inkscape (http://www.inkscape.org/) -->

<svg
   xmlns:dc="http://purl.org/dc/elements/1.1/"
   xmlns:cc="http://creativecommons.org/ns#"
   xmlns:rdf="http://www.w3.org/1999/02/22-rdf-syntax-ns#"
   xmlns:svg="http://www.w3.org/2000/svg"
   xmlns="http://www.w3.org/2000/svg"
   xmlns:sodipodi="http://sodipodi.sourceforge.net/DTD/sodipodi-0.dtd"
   xmlns:inkscape="http://www.inkscape.org/namespaces/inkscape"
   width="19.424999"
   height="56.152275"
   id="svg3849"
   version="1.1"
   inkscape:version="0.48.4 r9939"
   sodipodi:docname="New document 3">
  <defs
     id="defs3851" />
  <sodipodi:namedview
     id="base"
     pagecolor="#ffffff"
     bordercolor="#666666"
     borderopacity="1.0"
     inkscape:pageopacity="0.0"
     inkscape:pageshadow="2"
     inkscape:zoom="7.9195959"
     inkscape:cx="45.916806"
     inkscape:cy="18.382194"
     inkscape:document-units="px"
     inkscape:current-layer="layer1"
     showgrid="false"
     fit-margin-top="0"
     fit-margin-left="0"
     fit-margin-right="0"
     fit-margin-bottom="0"
     inkscape:window-width="1440"
     inkscape:window-height="837"
     inkscape:window-x="-8"
     inkscape:window-y="-8"
     inkscape:window-maximized="1" />
  <metadata
     id="metadata3854">
    <rdf:RDF>
      <cc:Work
         rdf:about="">
        <dc:format>image/svg+xml</dc:format>
        <dc:type
           rdf:resource="http://purl.org/dc/dcmitype/StillImage" />
        <dc:title></dc:title>
      </cc:Work>
    </rdf:RDF>
  </metadata>
  <g
     inkscape:label="Layer 1"
     inkscape:groupmode="layer"
     id="layer1"
     transform="translate(-630.28748,-261.42891)">
    <path
       inkscape:connector-curvature="0"
       d="m 634.45,262.98118 c 1.5,1.6 13,15.7 13,15.7 0,0 -6.4,6.1 -6.4,12.5 0,7.5 8.6,14.3 8.6,14.3 l -0.9,1.1 c -3.3,-1.9 -8.9,-2.1 -11.4,0.8 -3.1,3.6 3.9,9.1 3.9,9.1 l -0.8,1.1 c -2.4,-1.8 -12.6,-11.4 -8.3,-16.1 2.6,-2.9 5.8,-3.8 10.3,-1.4 l -12.1,-12.5 c 7,-8.6 8.2,-11.1 8.2,-13.4 0,-4.8 -3.4,-8.2 -5.1,-10.4 -0.6,-0.9 -1.7,-1.6 -1,-2.2 0.7,-0.5 1.1,0.3 2,1.4 z"
       id="quarter_rest" />
    <rect
       style="fill:none;stroke:#ff0000;stroke-width:0.1;stroke-miterlimit:4;stroke-opacity:1;stroke-dasharray:none"
       id="bounds"
       width="19.299999"
       height="39.985645"
       x="630.34998"
       y="271.28119"
       inkscape:label="#rect3813" />
  </g>
</svg>
