<?xml version="1.0" encoding="UTF-8" standalone="no"?>
<svg
   xmlns:dc="http://purl.org/dc/elements/1.1/"
   xmlns:cc="http://creativecommons.org/ns#"
   xmlns:rdf="http://www.w3.org/1999/02/22-rdf-syntax-ns#"
   xmlns:svg="http://www.w3.org/2000/svg"
   xmlns="http://www.w3.org/2000/svg"
   xmlns:sodipodi="http://sodipodi.sourceforge.net/DTD/sodipodi-0.dtd"
   xmlns:inkscape="http://www.inkscape.org/namespaces/inkscape"
   version="1.2"
   width="10.909528"
   height="13.075932"
   viewBox="0 0 1.752075 2.0999963"
   id="svg2"
   inkscape:version="0.48.4 r9939"
   sodipodi:docname="time_mark_c_cut.svg">
  <metadata
     id="metadata44">
    <rdf:RDF>
      <cc:Work
         rdf:about="">
        <dc:format>image/svg+xml</dc:format>
        <dc:type
           rdf:resource="http://purl.org/dc/dcmitype/StillImage" />
        <dc:title />
      </cc:Work>
    </rdf:RDF>
  </metadata>
  <defs
     id="defs42" />
  <sodipodi:namedview
     pagecolor="#ffffff"
     bordercolor="#666666"
     borderopacity="1"
     objecttolerance="10"
     gridtolerance="10"
     guidetolerance="10"
     inkscape:pageopacity="0"
     inkscape:pageshadow="2"
     inkscape:window-width="1440"
     inkscape:window-height="837"
     id="namedview40"
     showgrid="false"
     inkscape:snap-page="true"
     inkscape:snap-center="true"
     inkscape:snap-object-midpoints="true"
     inkscape:snap-midpoints="true"
     inkscape:snap-smooth-nodes="true"
     inkscape:object-nodes="true"
     inkscape:object-paths="true"
     inkscape:snap-intersection-paths="true"
     inkscape:snap-bbox="true"
     inkscape:bbox-paths="true"
     inkscape:bbox-nodes="true"
     inkscape:snap-bbox-edge-midpoints="true"
     inkscape:snap-bbox-midpoints="true"
     showguides="true"
     inkscape:guide-bbox="true"
     fit-margin-top="0"
     fit-margin-left="0"
     fit-margin-right="0"
     fit-margin-bottom="0"
     inkscape:zoom="32"
     inkscape:cx="5.9966422"
     inkscape:cy="6.0259072"
     inkscape:window-x="-8"
     inkscape:window-y="-8"
     inkscape:window-maximized="1"
     inkscape:current-layer="svg2">
    <sodipodi:guide
       orientation="0,1"
       position="31.222629,-11.830662"
       id="guide3021" />
    <sodipodi:guide
       orientation="0,1"
       position="32.649811,-24.283928"
       id="guide3023" />
    <sodipodi:guide
       orientation="1,0"
       position="34.739242,-18.057295"
       id="guide3025" />
    <sodipodi:guide
       orientation="1,0"
       position="45.52377,-20.273977"
       id="guide3027" />
    <sodipodi:guide
       orientation="1,0"
       position="5.1735328,1.5015139"
       id="guide3032" />
    <sodipodi:guide
       orientation="1,0"
       position="4.7735328,1.9326416"
       id="guide3034" />
    <sodipodi:guide
       orientation="1,0"
       position="5.5735328,1.3825821"
       id="guide3036" />
    <sodipodi:guide
       orientation="0,1"
       position="4.7735328,-0.73942291"
       id="guide3808" />
    <sodipodi:guide
       orientation="0,1"
       position="5.1735329,-1.01986"
       id="guide3810" />
    <sodipodi:guide
       orientation="0,1"
       position="4.7735328,14.437995"
       id="guide3812" />
    <sodipodi:guide
       orientation="0,1"
       position="5.1735329,14.735491"
       id="guide3814" />
  </sodipodi:namedview>
  <!-- Page: 1/1 -->
  <text
     font-size="2.1995"
     id="text4"
     style="font-size:2.19950008px;text-anchor:start;fill:currentColor;font-family:Century Schoolbook L"
     x="0.57913756"
     y="1.3322676e-015">
    <tspan
       id="tspan6" />
  </text>
  <path
     d="m 1.4460375,0.93999039 c -0.196,0 -0.3,-0.168 -0.3,-0.29999999 0,-0.1520004 0.108,-0.3080004 0.288,-0.3080004 0.016,0 0.036,0 0.056,0.004 -0.112,-0.148 -0.288,-0.236 -0.48,-0.236 -0.42399996,0 -0.45199996,0.292 -0.45199996,0.74400039 v 0.20400001 0.204 c 0,0.452 0.028,0.748 0.45199996,0.748 0.32,0 0.556,-0.28 0.632,-0.604 0.008,-0.028 0.028,-0.04 0.048,-0.04 0.024,0 0.052,0.016 0.052,0.048 0,0.376 -0.42,0.696 -0.732,0.696 -0.27199996,0 -0.54799996,-0.084 -0.73599996,-0.28 -0.196,-0.204 -0.264,-0.488 -0.264,-0.772 0,-0.28400001 0.068,-0.5680004 0.264,-0.7720004 0.188,-0.196 0.464,-0.276 0.73599996,-0.276 0.348,0 0.64,0.256 0.7,0.6000004 0.004,0.02 0.004,0.036 0.004,0.052 0,0.15999999 -0.12,0.28799999 -0.268,0.28799999 z"
     id="path20"
     inkscape:connector-curvature="0"
     style="fill:currentColor" />
  <text
     font-size="2.1995"
     id="text36"
     style="font-size:2.19950008px;text-anchor:start;fill:currentColor;font-family:Century Schoolbook L"
     x="8.5458374"
     y="10.243">
    <tspan
       id="tspan38" />
  </text>
  <rect
     style="fill:none;stroke:#ff0000;stroke-width:0.01606004;stroke-miterlimit:4;stroke-opacity:1;stroke-dasharray:none"
     id="bounds"
     width="1.7319999"
     height="2"
     x="0.010037527"
     y="0.047989931"
     inkscape:label="#rect3029" />
  <path
     style="font-size:medium;font-style:normal;font-variant:normal;font-weight:normal;font-stretch:normal;text-indent:0;text-align:start;text-decoration:none;line-height:normal;letter-spacing:normal;word-spacing:normal;text-transform:none;direction:ltr;block-progression:tb;writing-mode:lr-tb;text-anchor:start;baseline-shift:baseline;color:#000000;fill:#000000;fill-opacity:1;stroke:none;stroke-width:0.12848035;marker:none;visibility:visible;display:inline;overflow:visible;enable-background:accumulate;font-family:Sans;-inkscape-font-specification:Sans"
     d="m 0.76663148,-0.21875 0,0.0625 0,2.375 c 0,0.045059 0,0.045038 0.0642402,0.04497 0.0642402,-6.89e-5 0.0642402,-7.792e-4 0.0642402,-0.04497 l 0,-2.375 0,-0.0625 c 0,-0.023799 -0.0322416,-0.0476883 -0.0642402,-0.047778 -0.0322407,-9.04e-5 -0.0642402,0.023799 -0.0642402,0.047778 z"
     inkscape:connector-curvature="0"
     sodipodi:nodetypes="cccscccsc" />
</svg>
