<?xml version="1.0" encoding="UTF-8" standalone="no"?>
<!-- Created with Inkscape (http://www.inkscape.org/) -->

<svg
   xmlns:dc="http://purl.org/dc/elements/1.1/"
   xmlns:cc="http://creativecommons.org/ns#"
   xmlns:rdf="http://www.w3.org/1999/02/22-rdf-syntax-ns#"
   xmlns:svg="http://www.w3.org/2000/svg"
   xmlns="http://www.w3.org/2000/svg"
   xmlns:sodipodi="http://sodipodi.sourceforge.net/DTD/sodipodi-0.dtd"
   xmlns:inkscape="http://www.inkscape.org/namespaces/inkscape"
   width="7.5936799"
   height="7.6203399"
   id="svg3014"
   version="1.1"
   inkscape:version="0.48.4 r9939"
   sodipodi:docname="New document 2">
  <defs
     id="defs3016" />
  <sodipodi:namedview
     id="base"
     pagecolor="#ffffff"
     bordercolor="#666666"
     borderopacity="1.0"
     inkscape:pageopacity="0.0"
     inkscape:pageshadow="2"
     inkscape:zoom="31.678384"
     inkscape:cx="3.3246072"
     inkscape:cy="2.1764079"
     inkscape:document-units="px"
     inkscape:current-layer="layer1"
     showgrid="false"
     showguides="true"
     inkscape:guide-bbox="true"
     inkscape:snap-bbox="true"
     inkscape:bbox-paths="true"
     inkscape:bbox-nodes="true"
     inkscape:snap-bbox-midpoints="true"
     inkscape:snap-bbox-edge-midpoints="true"
     inkscape:object-paths="true"
     inkscape:snap-intersection-paths="true"
     inkscape:object-nodes="true"
     inkscape:snap-smooth-nodes="true"
     inkscape:snap-midpoints="true"
     inkscape:snap-object-midpoints="true"
     inkscape:snap-center="true"
     inkscape:snap-page="true"
     fit-margin-top="0"
     fit-margin-left="0"
     fit-margin-right="0"
     fit-margin-bottom="0"
     inkscape:window-width="1440"
     inkscape:window-height="837"
     inkscape:window-x="-8"
     inkscape:window-y="-8"
     inkscape:window-maximized="1">
    <sodipodi:guide
       orientation="0,1"
       position="2.76132,7.3282774"
       id="guide3029" />
    <sodipodi:guide
       orientation="0,1"
       position="2.76136,0.29206738"
       id="guide3031" />
    <sodipodi:guide
       orientation="1,0"
       position="0.26551,4.8589874"
       id="guide3033" />
    <sodipodi:guide
       orientation="1,0"
       position="7.32817,2.7613374"
       id="guide3035" />
  </sodipodi:namedview>
  <metadata
     id="metadata3019">
    <rdf:RDF>
      <cc:Work
         rdf:about="">
        <dc:format>image/svg+xml</dc:format>
        <dc:type
           rdf:resource="http://purl.org/dc/dcmitype/StillImage" />
        <dc:title></dc:title>
      </cc:Work>
    </rdf:RDF>
  </metadata>
  <g
     inkscape:label="Layer 1"
     inkscape:groupmode="layer"
     id="layer1"
     transform="translate(-379.0603,-437.12348)">
    <path
       inkscape:connector-curvature="0"
       id="text857"
       d="m 379.29925,437.1766 c -0.0548,0.0287 -0.10455,0.0708 -0.14935,0.12612 -0.0448,0.0553 -0.0747,0.11064 -0.0896,0.16594 0.008,0.1372 0.0454,0.53324 0.11283,1.18817 0.0675,0.65493 0.11838,1.06426 0.15268,1.228 0.0575,0.23453 0.23453,0.34959 0.53102,0.34517 0.24338,0.002 0.48677,0.0249 0.73016,0.0697 0.24337,0.0448 0.46022,0.10123 0.6505,0.16926 0.11174,0.0431 0.22679,0.1029 0.34518,0.17924 0.11838,0.0763 0.20688,0.14935 0.2655,0.21904 l 0.0797,0.0797 -0.10622,0.0797 c -0.19306,0.18807 -0.4641,0.33633 -0.81313,0.44473 -0.34903,0.10841 -0.73293,0.16375 -1.15166,0.16594 -0.29648,-0.005 -0.4735,0.11064 -0.53103,0.34517 -0.0344,0.16485 -0.0852,0.5786 -0.15268,1.24128 -0.0675,0.66267 -0.10508,1.06315 -0.11282,1.20144 0.0181,0.0581 0.0614,0.12114 0.12944,0.18917 0.068,0.068 0.13112,0.11116 0.18917,0.12945 0.14989,-0.009 0.55371,-0.0509 1.2114,-0.12613 0.6577,-0.0752 1.06814,-0.13054 1.23132,-0.16594 0.13054,-0.0332 0.22123,-0.0996 0.27215,-0.19914 0.0509,-0.0996 0.0753,-0.27215 0.073,-0.51775 0.014,-0.20133 0.0393,-0.39605 0.0763,-0.58412 0.037,-0.18808 0.0824,-0.35624 0.13606,-0.50448 0.0431,-0.12556 0.10289,-0.25278 0.17923,-0.38167 0.0763,-0.12889 0.14936,-0.22294 0.21905,-0.28209 l 0.0797,-0.0797 0.0797,0.0797 c 0.0697,0.0592 0.1427,0.1532 0.21904,0.28209 0.0763,0.12888 0.13606,0.2561 0.17924,0.38167 0.0536,0.14826 0.099,0.31639 0.13606,0.50447 0.037,0.18808 0.0625,0.38278 0.0763,0.58413 -0.002,0.2456 0.0223,0.41818 0.073,0.51775 0.0509,0.0996 0.14162,0.16594 0.27216,0.19914 0.16318,0.0355 0.57361,0.0907 1.23131,0.16594 0.65769,0.0752 1.06149,0.11724 1.2114,0.12612 0.0581,-0.0181 0.12114,-0.0614 0.18917,-0.12945 0.068,-0.068 0.11117,-0.13111 0.12945,-0.18917 -0.008,-0.13828 -0.0454,-0.53877 -0.11283,-1.20144 -0.0675,-0.66267 -0.11838,-1.07643 -0.15268,-1.24127 -0.0575,-0.23453 -0.23453,-0.34959 -0.53102,-0.34517 -0.24341,-0.002 -0.48678,-0.0249 -0.73016,-0.0697 -0.24338,-0.0448 -0.46023,-0.10124 -0.65051,-0.16926 -0.11173,-0.0431 -0.22679,-0.1029 -0.34517,-0.17924 -0.11838,-0.0763 -0.20688,-0.14935 -0.26551,-0.21905 l -0.0797,-0.0797 0.10622,-0.0797 c 0.19306,-0.18808 0.46409,-0.33634 0.81313,-0.44474 0.34902,-0.10841 0.73291,-0.16375 1.15166,-0.16594 0.29648,0.005 0.47349,-0.11063 0.53102,-0.34517 0.0344,-0.16484 0.0852,-0.57859 0.15268,-1.24127 0.0675,-0.66267 0.10509,-1.06315 0.11283,-1.20144 -0.0181,-0.0581 -0.0614,-0.12114 -0.12945,-0.18917 -0.068,-0.068 -0.13111,-0.11117 -0.18917,-0.12945 -0.14992,0.009 -0.55371,0.0509 -1.2114,0.12613 -0.6577,0.0752 -1.06814,0.13054 -1.23131,0.16593 -0.13055,0.0332 -0.22128,0.0996 -0.27216,0.19914 -0.0509,0.0996 -0.0752,0.27216 -0.073,0.51775 -0.014,0.20137 -0.0393,0.39606 -0.0763,0.58413 -0.037,0.18807 -0.0824,0.35624 -0.13606,0.50447 -0.0431,0.12556 -0.1029,0.25278 -0.17924,0.38168 -0.0763,0.12888 -0.14935,0.22293 -0.21904,0.28209 l -0.0797,0.0797 -0.0797,-0.0797 c -0.0697,-0.0592 -0.14271,-0.15321 -0.21905,-0.28209 -0.0763,-0.12889 -0.13606,-0.25611 -0.17923,-0.38168 -0.0537,-0.14822 -0.099,-0.31639 -0.13606,-0.50447 -0.037,-0.18808 -0.0625,-0.38278 -0.0763,-0.58413 0.002,-0.2456 -0.0223,-0.41818 -0.073,-0.51775 -0.0509,-0.0996 -0.14161,-0.16594 -0.27215,-0.19914 -0.13497,-0.0355 -0.52218,-0.0907 -1.16162,-0.16594 -0.63944,-0.0752 -1.03992,-0.11725 -1.20144,-0.12612 -0.0531,0.005 -0.10622,0.0223 -0.15929,0.0531 l 0,0 z"
       style="font-size:7.02919579px;font-family:Emmentaler" />
    <rect
       style="fill:none;stroke:#ff0000;stroke-width:0.2;stroke-miterlimit:4;stroke-opacity:1;stroke-dasharray:none"
       id="bounds"
       width="7.0626602"
       height="7.0362101"
       x="379.32581"
       y="437.41556"
       inkscape:label="#rect3037" />
  </g>
</svg>
