<?xml version="1.0" encoding="UTF-8" standalone="no"?>
<svg
   xmlns:dc="http://purl.org/dc/elements/1.1/"
   xmlns:cc="http://creativecommons.org/ns#"
   xmlns:rdf="http://www.w3.org/1999/02/22-rdf-syntax-ns#"
   xmlns:svg="http://www.w3.org/2000/svg"
   xmlns="http://www.w3.org/2000/svg"
   xmlns:sodipodi="http://sodipodi.sourceforge.net/DTD/sodipodi-0.dtd"
   xmlns:inkscape="http://www.inkscape.org/namespaces/inkscape"
   version="1.2"
   width="1.1912557"
   height="15.780683"
   sodipodi:docname="figure.svg"
   id="svg2"
   inkscape:version="0.48.4 r9939">
  <metadata
     id="metadata12">
    <rdf:RDF>
      <cc:Work
         rdf:about="">
        <dc:format>image/svg+xml</dc:format>
        <dc:type
           rdf:resource="http://purl.org/dc/dcmitype/StillImage" />
      </cc:Work>
    </rdf:RDF>
  </metadata>
  <defs
     id="defs10" />
  <sodipodi:namedview
     pagecolor="#ffffff"
     bordercolor="#666666"
     fit-margin-top="0"
     fit-margin-left="0"
     fit-margin-right="0"
     fit-margin-bottom="0"
     inkscape:showpageshadow="true"
     inkscape:snap-page="true"
     inkscape:object-paths="true"
     inkscape:snap-intersection-paths="true"
     inkscape:object-nodes="true"
     inkscape:snap-smooth-nodes="true"
     inkscape:snap-midpoints="true"
     inkscape:snap-object-midpoints="true"
     inkscape:snap-center="true"
     showguides="true"
     inkscape:guide-bbox="true"
     id="namedview4"
     showgrid="false"
     inkscape:zoom="38.428359"
     inkscape:cx="5.1792905"
     inkscape:cy="7.6657247"
     inkscape:window-width="1440"
     inkscape:window-height="837"
     inkscape:window-x="-8"
     inkscape:window-y="-8"
     inkscape:window-maximized="1"
     inkscape:current-layer="svg2">
    <sodipodi:guide
       orientation="0,1"
       position="5.793272e-008,-82.480082"
       id="guide2986" />
    <sodipodi:guide
       orientation="0,1"
       position="2.4602561,0"
       id="guide2991" />
  </sodipodi:namedview>
  <path
     style="fill:currentColor"
     inkscape:connector-curvature="0"
     d="m 1.0324167,10.262703 c 0,1.265267 -0.53606269,2.477813 -0.53606269,3.67278 0,0.65021 0.158834,1.24769 0.67504169,1.72217 0.01986,0.01758 0.01986,0.03516 0.01986,0.05273 0,0.03516 -0.03971,0.0703 -0.07941,0.0703 -0.01986,0 -0.03971,0 -0.05957,-0.01758 -0.69489569,-0.650199 -0.93314469,-1.493716 -0.93314469,-2.372368 0,-1.282833 0.57577,-2.548099 0.57577,-3.7606437 0,-0.632634 -0.158833,-1.230113 -0.675041,-1.704593 C 0.01986001,7.9079183 0,7.9079183 0,7.8903383 c 0,-0.01758 0.01986001,-0.01758 0.01986001,-0.03516 0.516208,-0.4744703 0.675041,-1.0719593 0.675041,-1.7045923 0,-1.212546 -0.57577,-2.477801 -0.57577,-3.7606436 0,-0.8786523 0.238249,-1.7221593 0.93314469,-2.3723704 C 1.0721357,0 1.0919857,0 1.1118457,0 c 0.03971,0 0.07941,0.035154 0.07941,0.070299 0,0.017572 0,0.035154 -0.01986,0.052736 -0.51620769,0.4744695 -0.67504169,1.0719585 -0.67504169,1.7221583 0,1.194978 0.53606269,2.4075243 0.53606269,3.6727797 0,0.878661 -0.21839599,1.722168 -0.89343669,2.3723683 0.6750407,0.650212 0.89343669,1.493718 0.89343669,2.3723697 z"
     id="path46-8-9" />
  <rect
     style="fill:none;stroke:#ff0000;stroke-width:0.0537478;stroke-miterlimit:4;stroke-opacity:1;stroke-dasharray:none"
     id="rect2989"
     width="1.0766617"
     height="15.780683"
     x="1.1912558"
     y="0" />
</svg>
