<?xml version="1.0"?>
<svg width="24.093657" height="79.940002" xmlns="http://www.w3.org/2000/svg">

 <metadata id="metadata7">image/svg+xml</metadata>
 <g>
   <path fill="#000000" fill-rule="evenodd" stroke="#000000" stroke-width="0" stroke-linejoin="round" stroke-miterlimit="10" d="m0.05426,13.330612l0,13.255615l0.852478,0l0.958984,0l1.603668,1.71022c10.383942,10.927368 15.168304,18.897751 16.026093,26.431305c0.101318,1.268005 0.101318,4.347473 -0.106384,6.260162c-0.538086,4.997513 -1.912659,10.410568 -3.931915,15.072388c-0.207733,0.644684 -0.415558,1.161469 -0.415558,1.497131c0,0.415558 0.309021,1.268005 0.724579,1.582336c0.335785,0.436859 1.273315,0.745911 1.811462,0.745911c0.415558,0 1.374573,-0.436859 1.710205,-0.745911c0.309052,-0.314453 0.724579,-1.374573 1.577026,-3.937195c2.770477,-8.386017 3.830719,-17.086334 2.770477,-23.554306c-0.644653,-3.830704 -2.019226,-7.640076 -4.139709,-11.987595c-1.603668,-3.18605 -2.978271,-5.535583 -6.910187,-11.907669c-5.306519,-8.492538 -7.325745,-12.525665 -8.908112,-17.294083c-1.060211,-3.186005 -1.811462,-7.117966 -1.811462,-9.760544l0,-0.644684l-0.852448,0l-0.959015,0l0,13.276917l-0.000183,0z" id="path2786"/>
 </g>
 <g>
  <g id="bounds">
   <rect fill="none" y="11.756634" x="0" height="77.373909" width="24.093657" id="rect3026"/>
  </g>
 </g>
</svg>